<mxfile host="Electron" agent="Mozilla/5.0 (Windows NT 10.0; Win64; x64) AppleWebKit/537.36 (KHTML, like Gecko) draw.io/28.2.5 Chrome/138.0.7204.251 Electron/37.6.1 Safari/537.36" version="28.2.5">
  <diagram name="Page-1" id="rFZdIJv3S594tShdbLpA">
    <mxGraphModel dx="3478" dy="4226" grid="0" gridSize="10" guides="0" tooltips="1" connect="1" arrows="0" fold="1" page="0" pageScale="1" pageWidth="980" pageHeight="690" math="0" shadow="0">
      <root>
        <mxCell id="0" />
        <mxCell id="1" parent="0" />
        <mxCell id="OvatHVZ9PwKXDZZDOVpk-89" value="" style="rounded=0;whiteSpace=wrap;html=1;fillColor=none;dashed=1;strokeColor=light-dark(#888686, #ededed);" parent="1" vertex="1">
          <mxGeometry x="-779" y="-3181" width="140" height="520" as="geometry" />
        </mxCell>
        <mxCell id="OvatHVZ9PwKXDZZDOVpk-11" value="&lt;div&gt;&lt;span style=&quot;background-color: transparent; color: light-dark(rgb(0, 0, 0), rgb(255, 255, 255));&quot;&gt;&lt;font&gt;High Level Architecture&lt;/font&gt;&lt;/span&gt;&lt;/div&gt;" style="text;html=1;align=center;verticalAlign=middle;whiteSpace=wrap;rounded=0;fontSize=30;fontStyle=1" parent="1" vertex="1">
          <mxGeometry x="-1604" y="-3275" width="380" height="30" as="geometry" />
        </mxCell>
        <mxCell id="OvatHVZ9PwKXDZZDOVpk-69" value="SQL Server" style="text;html=1;align=center;verticalAlign=middle;whiteSpace=wrap;rounded=0;fontStyle=1;fontSize=13;" parent="1" vertex="1">
          <mxGeometry x="-1303" y="-3212" width="80" height="30" as="geometry" />
        </mxCell>
        <mxCell id="OvatHVZ9PwKXDZZDOVpk-71" value="" style="image;aspect=fixed;html=1;points=[];align=center;fontSize=12;image=img/lib/azure2/databases/SQL_Server.svg;" parent="1" vertex="1">
          <mxGeometry x="-1343" y="-3220" width="38" height="38" as="geometry" />
        </mxCell>
        <mxCell id="OvatHVZ9PwKXDZZDOVpk-72" value="" style="rounded=0;whiteSpace=wrap;html=1;fillColor=none;dashed=1;strokeColor=light-dark(#888686, #ededed);" parent="1" vertex="1">
          <mxGeometry x="-1531" y="-3180" width="140" height="520" as="geometry" />
        </mxCell>
        <mxCell id="OvatHVZ9PwKXDZZDOVpk-73" value="Sources" style="whiteSpace=wrap;html=1;fontStyle=1;fontSize=24;fillColor=default;strokeColor=none;" parent="1" vertex="1">
          <mxGeometry x="-1526" y="-3195" width="140" height="20" as="geometry" />
        </mxCell>
        <mxCell id="OvatHVZ9PwKXDZZDOVpk-74" value="" style="rounded=0;whiteSpace=wrap;html=1;fillColor=none;dashed=1;strokeColor=default;" parent="1" vertex="1">
          <mxGeometry x="-1361" y="-3180" width="550" height="520" as="geometry" />
        </mxCell>
        <mxCell id="OvatHVZ9PwKXDZZDOVpk-75" value="Data Warehouse" style="whiteSpace=wrap;html=1;fontSize=24;fontStyle=1;strokeColor=none;" parent="1" vertex="1">
          <mxGeometry x="-1181" y="-3195" width="200" height="20" as="geometry" />
        </mxCell>
        <mxCell id="OvatHVZ9PwKXDZZDOVpk-76" value="Consume" style="whiteSpace=wrap;html=1;fontStyle=1;fontSize=24;fillColor=default;strokeColor=none;" parent="1" vertex="1">
          <mxGeometry x="-779" y="-3203" width="140" height="24" as="geometry" />
        </mxCell>
        <mxCell id="OvatHVZ9PwKXDZZDOVpk-77" value="Bronze Layer" style="rounded=0;whiteSpace=wrap;html=1;fillColor=#fff2cc;strokeColor=#d6b656;fontSize=20;fontStyle=1" parent="1" vertex="1">
          <mxGeometry x="-1351" y="-3160" width="150" height="20" as="geometry" />
        </mxCell>
        <mxCell id="OvatHVZ9PwKXDZZDOVpk-78" value="" style="rounded=0;whiteSpace=wrap;html=1;fillColor=none;strokeColor=#d6b656;fontSize=20;fontStyle=1" parent="1" vertex="1">
          <mxGeometry x="-1351" y="-3140" width="150" height="470" as="geometry" />
        </mxCell>
        <mxCell id="OvatHVZ9PwKXDZZDOVpk-79" value="Silver Layer" style="rounded=0;whiteSpace=wrap;html=1;fillColor=#f5f5f5;strokeColor=#666666;fontSize=20;fontStyle=1;gradientColor=#b3b3b3;" parent="1" vertex="1">
          <mxGeometry x="-1176" y="-3160" width="165" height="20" as="geometry" />
        </mxCell>
        <mxCell id="OvatHVZ9PwKXDZZDOVpk-80" value="" style="rounded=0;whiteSpace=wrap;html=1;fillColor=none;strokeColor=#666666;fontSize=20;fontStyle=1;gradientColor=#b3b3b3;" parent="1" vertex="1">
          <mxGeometry x="-1176" y="-3140" width="165" height="470" as="geometry" />
        </mxCell>
        <mxCell id="OvatHVZ9PwKXDZZDOVpk-81" value="GoldLayer" style="rounded=0;whiteSpace=wrap;html=1;fillColor=#fff2cc;strokeColor=#d6b656;fontSize=20;fontStyle=1;gradientColor=#ffd966;" parent="1" vertex="1">
          <mxGeometry x="-981" y="-3160" width="160" height="20" as="geometry" />
        </mxCell>
        <mxCell id="OvatHVZ9PwKXDZZDOVpk-82" value="" style="rounded=0;whiteSpace=wrap;html=1;fillColor=none;strokeColor=#d79b00;fontSize=20;fontStyle=1;gradientColor=#ffa500;" parent="1" vertex="1">
          <mxGeometry x="-981" y="-3140" width="160" height="470" as="geometry" />
        </mxCell>
        <mxCell id="OvatHVZ9PwKXDZZDOVpk-83" value="&lt;b&gt;CRM&lt;/b&gt;" style="image;aspect=fixed;html=1;points=[];align=center;fontSize=12;image=img/lib/azure2/general/Folder_Blank.svg;" parent="1" vertex="1">
          <mxGeometry x="-1491.81" y="-3150" width="61.62" height="50" as="geometry" />
        </mxCell>
        <mxCell id="OvatHVZ9PwKXDZZDOVpk-84" value="" style="image;aspect=fixed;html=1;points=[];align=center;fontSize=12;image=img/lib/azure2/general/Files.svg;" parent="1" vertex="1">
          <mxGeometry x="-1462.19" y="-3135" width="32" height="35" as="geometry" />
        </mxCell>
        <mxCell id="OvatHVZ9PwKXDZZDOVpk-85" value="&lt;b&gt;ERP&lt;/b&gt;" style="image;aspect=fixed;html=1;points=[];align=center;fontSize=12;image=img/lib/azure2/general/Folder_Blank.svg;" parent="1" vertex="1">
          <mxGeometry x="-1491.81" y="-3030" width="61.62" height="50" as="geometry" />
        </mxCell>
        <mxCell id="OvatHVZ9PwKXDZZDOVpk-86" value="" style="image;aspect=fixed;html=1;points=[];align=center;fontSize=12;image=img/lib/azure2/general/Files.svg;" parent="1" vertex="1">
          <mxGeometry x="-1462.19" y="-3015" width="32" height="35" as="geometry" />
        </mxCell>
        <mxCell id="OvatHVZ9PwKXDZZDOVpk-87" value="" style="endArrow=none;html=1;rounded=0;fillColor=#f5f5f5;strokeColor=#666666;exitX=0;exitY=0.5;exitDx=0;exitDy=0;entryX=1;entryY=0.5;entryDx=0;entryDy=0;" parent="1" source="OvatHVZ9PwKXDZZDOVpk-72" target="OvatHVZ9PwKXDZZDOVpk-72" edge="1">
          <mxGeometry width="50" height="50" relative="1" as="geometry">
            <mxPoint x="-1520.46" y="-2920.08" as="sourcePoint" />
            <mxPoint x="-1401.54" y="-2920.08" as="targetPoint" />
            <Array as="points">
              <mxPoint x="-1467.3" y="-2920" />
            </Array>
          </mxGeometry>
        </mxCell>
        <mxCell id="OvatHVZ9PwKXDZZDOVpk-88" value="Object Type: CSV Files&lt;div&gt;&lt;span style=&quot;background-color: transparent; color: light-dark(rgb(0, 0, 0), rgb(255, 255, 255));&quot;&gt;Storage: Files in Folder&lt;/span&gt;&lt;/div&gt;" style="text;html=1;align=left;verticalAlign=middle;whiteSpace=wrap;rounded=0;fontSize=12;fontStyle=1" parent="1" vertex="1">
          <mxGeometry x="-1531" y="-2900" width="150" height="20" as="geometry" />
        </mxCell>
        <mxCell id="OvatHVZ9PwKXDZZDOVpk-90" value="&lt;b&gt;&lt;font style=&quot;font-size: 13px;&quot;&gt;Raw Data&lt;/font&gt;&lt;/b&gt;" style="html=1;verticalLabelPosition=bottom;align=center;labelBackgroundColor=#ffffff;verticalAlign=top;strokeWidth=2;strokeColor=#d6b656;shadow=0;dashed=0;shape=mxgraph.ios7.icons.data;fillColor=#fff2cc;" parent="1" vertex="1">
          <mxGeometry x="-1316" y="-3100" width="70" height="80" as="geometry" />
        </mxCell>
        <mxCell id="OvatHVZ9PwKXDZZDOVpk-91" value="&lt;b&gt;Cleaned Standardized&amp;nbsp;&lt;/b&gt;&lt;div&gt;&lt;b&gt;Data&lt;/b&gt;&lt;/div&gt;" style="html=1;verticalLabelPosition=bottom;align=center;labelBackgroundColor=#ffffff;verticalAlign=top;strokeWidth=2;strokeColor=#666666;shadow=0;dashed=0;shape=mxgraph.ios7.icons.data;fillColor=#f5f5f5;gradientColor=#b3b3b3;" parent="1" vertex="1">
          <mxGeometry x="-1138.5" y="-3095" width="70" height="80" as="geometry" />
        </mxCell>
        <mxCell id="OvatHVZ9PwKXDZZDOVpk-92" value="&lt;b&gt;Business Ready Data&lt;/b&gt;" style="html=1;verticalLabelPosition=bottom;align=center;labelBackgroundColor=#ffffff;verticalAlign=top;strokeWidth=2;strokeColor=#d6b656;shadow=0;dashed=0;shape=mxgraph.ios7.icons.data;fillColor=#fff2cc;gradientColor=#ffd966;" parent="1" vertex="1">
          <mxGeometry x="-936" y="-3095" width="70" height="80" as="geometry" />
        </mxCell>
        <mxCell id="OvatHVZ9PwKXDZZDOVpk-93" value="" style="shape=flexArrow;endArrow=classic;html=1;rounded=0;fillColor=#dae8fc;strokeColor=#6c8ebf;" parent="1" edge="1">
          <mxGeometry width="50" height="50" relative="1" as="geometry">
            <mxPoint x="-1396" y="-3050" as="sourcePoint" />
            <mxPoint x="-1346" y="-3050" as="targetPoint" />
          </mxGeometry>
        </mxCell>
        <mxCell id="OvatHVZ9PwKXDZZDOVpk-94" value="" style="shape=flexArrow;endArrow=classic;html=1;rounded=0;fillColor=#dae8fc;strokeColor=#6c8ebf;" parent="1" edge="1">
          <mxGeometry width="50" height="50" relative="1" as="geometry">
            <mxPoint x="-1201" y="-3050" as="sourcePoint" />
            <mxPoint x="-1151" y="-3050" as="targetPoint" />
          </mxGeometry>
        </mxCell>
        <mxCell id="OvatHVZ9PwKXDZZDOVpk-95" value="" style="shape=flexArrow;endArrow=classic;html=1;rounded=0;fillColor=#dae8fc;strokeColor=#6c8ebf;" parent="1" edge="1">
          <mxGeometry width="50" height="50" relative="1" as="geometry">
            <mxPoint x="-1011" y="-3050" as="sourcePoint" />
            <mxPoint x="-961" y="-3050" as="targetPoint" />
          </mxGeometry>
        </mxCell>
        <mxCell id="OvatHVZ9PwKXDZZDOVpk-96" value="" style="shape=flexArrow;endArrow=classic;html=1;rounded=0;fillColor=#dae8fc;strokeColor=#6c8ebf;" parent="1" edge="1">
          <mxGeometry width="50" height="50" relative="1" as="geometry">
            <mxPoint x="-809" y="-3054" as="sourcePoint" />
            <mxPoint x="-759" y="-3054" as="targetPoint" />
          </mxGeometry>
        </mxCell>
        <mxCell id="OvatHVZ9PwKXDZZDOVpk-97" value="" style="endArrow=none;html=1;rounded=0;fillColor=#f5f5f5;strokeColor=#666666;exitX=0.021;exitY=0.684;exitDx=0;exitDy=0;exitPerimeter=0;entryX=0.99;entryY=0.361;entryDx=0;entryDy=0;entryPerimeter=0;" parent="1" target="OvatHVZ9PwKXDZZDOVpk-78" edge="1">
          <mxGeometry width="50" height="50" relative="1" as="geometry">
            <mxPoint x="-1351" y="-2970" as="sourcePoint" />
            <mxPoint x="-1206" y="-2970" as="targetPoint" />
            <Array as="points">
              <mxPoint x="-1290.3" y="-2970" />
            </Array>
          </mxGeometry>
        </mxCell>
        <mxCell id="OvatHVZ9PwKXDZZDOVpk-98" value="" style="endArrow=none;html=1;rounded=0;fillColor=#f5f5f5;strokeColor=#666666;entryX=0.991;entryY=0.361;entryDx=0;entryDy=0;entryPerimeter=0;" parent="1" edge="1" target="OvatHVZ9PwKXDZZDOVpk-80">
          <mxGeometry width="50" height="50" relative="1" as="geometry">
            <mxPoint x="-1174" y="-2970" as="sourcePoint" />
            <mxPoint x="-1026.31" y="-2969.86" as="targetPoint" />
            <Array as="points">
              <mxPoint x="-1138.3" y="-2970" />
            </Array>
          </mxGeometry>
        </mxCell>
        <mxCell id="OvatHVZ9PwKXDZZDOVpk-99" value="" style="endArrow=none;html=1;rounded=0;fillColor=#f5f5f5;strokeColor=#666666;exitX=0.021;exitY=0.684;exitDx=0;exitDy=0;exitPerimeter=0;entryX=0.998;entryY=0.358;entryDx=0;entryDy=0;entryPerimeter=0;" parent="1" edge="1" target="OvatHVZ9PwKXDZZDOVpk-82">
          <mxGeometry width="50" height="50" relative="1" as="geometry">
            <mxPoint x="-979" y="-2971" as="sourcePoint" />
            <mxPoint x="-839" y="-2971" as="targetPoint" />
            <Array as="points">
              <mxPoint x="-918.3" y="-2971" />
            </Array>
          </mxGeometry>
        </mxCell>
        <mxCell id="OvatHVZ9PwKXDZZDOVpk-100" value="Object Type:Table&lt;div&gt;&lt;br&gt;&lt;div&gt;&lt;span style=&quot;background-color: transparent; color: light-dark(rgb(0, 0, 0), rgb(255, 255, 255));&quot;&gt;Load&lt;/span&gt;&lt;/div&gt;&lt;div&gt;&lt;ul&gt;&lt;li&gt;&lt;span style=&quot;background-color: transparent; color: light-dark(rgb(0, 0, 0), rgb(255, 255, 255));&quot;&gt;Batch Processing&lt;/span&gt;&lt;/li&gt;&lt;li&gt;Full Load&amp;nbsp;&lt;/li&gt;&lt;li&gt;Trunc &amp;amp; Insert&lt;/li&gt;&lt;/ul&gt;&lt;/div&gt;&lt;div&gt;No Transformations&lt;/div&gt;&lt;div&gt;&lt;br&gt;&lt;/div&gt;&lt;div&gt;Data Model: as-is&lt;/div&gt;&lt;/div&gt;" style="text;html=1;align=left;verticalAlign=middle;whiteSpace=wrap;rounded=0;fontSize=12;fontStyle=1" parent="1" vertex="1">
          <mxGeometry x="-1351" y="-2950" width="150" height="160" as="geometry" />
        </mxCell>
        <mxCell id="OvatHVZ9PwKXDZZDOVpk-101" value="Object Type:Table&lt;div&gt;&lt;br&gt;&lt;div&gt;&lt;span style=&quot;background-color: transparent; color: light-dark(rgb(0, 0, 0), rgb(255, 255, 255));&quot;&gt;Load&lt;/span&gt;&lt;/div&gt;&lt;div&gt;&lt;ul&gt;&lt;li&gt;&lt;span style=&quot;background-color: transparent; color: light-dark(rgb(0, 0, 0), rgb(255, 255, 255));&quot;&gt;Batch Processing&lt;/span&gt;&lt;/li&gt;&lt;li&gt;Full Load&amp;nbsp;&lt;/li&gt;&lt;li&gt;Trunc &amp;amp; Insert&lt;/li&gt;&lt;/ul&gt;&lt;/div&gt;&lt;div&gt;Transformations&lt;/div&gt;&lt;div&gt;&lt;ul&gt;&lt;li&gt;Data Cleaning&lt;/li&gt;&lt;li&gt;Data Standardization&lt;/li&gt;&lt;li&gt;Data Normalization&lt;/li&gt;&lt;li&gt;Derived Columns&lt;/li&gt;&lt;li&gt;Data Enrinchment&lt;/li&gt;&lt;/ul&gt;&lt;/div&gt;&lt;div&gt;Data Model: as-is&lt;/div&gt;&lt;/div&gt;" style="text;html=1;align=left;verticalAlign=middle;whiteSpace=wrap;rounded=0;fontSize=12;fontStyle=1" parent="1" vertex="1">
          <mxGeometry x="-1176" y="-2960" width="165" height="260" as="geometry" />
        </mxCell>
        <mxCell id="OvatHVZ9PwKXDZZDOVpk-102" value="Object Type:View&lt;div&gt;&lt;br&gt;&lt;div&gt;&lt;span style=&quot;background-color: transparent; color: light-dark(rgb(0, 0, 0), rgb(255, 255, 255));&quot;&gt;Load&lt;/span&gt;&lt;/div&gt;&lt;div&gt;&lt;ul&gt;&lt;li&gt;&lt;span style=&quot;background-color: transparent; color: light-dark(rgb(0, 0, 0), rgb(255, 255, 255));&quot;&gt;Batch Processing&lt;/span&gt;&lt;/li&gt;&lt;li&gt;Full Load&amp;nbsp;&lt;/li&gt;&lt;li&gt;Trunc &amp;amp; Insert&lt;/li&gt;&lt;/ul&gt;&lt;/div&gt;&lt;div&gt;Transformations&lt;/div&gt;&lt;div&gt;&lt;ul&gt;&lt;li&gt;Data Integration&lt;/li&gt;&lt;li&gt;Data Aggregation&lt;/li&gt;&lt;li&gt;Business Logics&lt;/li&gt;&lt;/ul&gt;&lt;/div&gt;&lt;div&gt;Data Model&lt;/div&gt;&lt;/div&gt;&lt;div&gt;&lt;ul&gt;&lt;li&gt;Start Schema&lt;/li&gt;&lt;li&gt;Flat Table&lt;/li&gt;&lt;li&gt;Aggregated Tables&lt;/li&gt;&lt;/ul&gt;&lt;/div&gt;" style="text;html=1;align=left;verticalAlign=middle;whiteSpace=wrap;rounded=0;fontSize=12;fontStyle=1" parent="1" vertex="1">
          <mxGeometry x="-976" y="-2940" width="165" height="240" as="geometry" />
        </mxCell>
        <mxCell id="OvatHVZ9PwKXDZZDOVpk-103" value="&lt;b&gt;BI &amp;amp; Reporting&lt;/b&gt;" style="image;aspect=fixed;html=1;points=[];align=center;fontSize=12;image=img/lib/azure2/power_platform/PowerBI.svg;" parent="1" vertex="1">
          <mxGeometry x="-727" y="-3093" width="33" height="44" as="geometry" />
        </mxCell>
        <mxCell id="OvatHVZ9PwKXDZZDOVpk-104" value="&lt;b&gt;Ad-hoc&lt;/b&gt;&lt;div&gt;&lt;b&gt;SQL Queries&lt;/b&gt;&lt;/div&gt;" style="sketch=0;html=1;aspect=fixed;strokeColor=none;shadow=0;fillColor=#3B8DF1;verticalAlign=top;labelPosition=center;verticalLabelPosition=bottom;shape=mxgraph.gcp2.search_api" parent="1" vertex="1">
          <mxGeometry x="-730" y="-2981" width="50" height="50" as="geometry" />
        </mxCell>
        <mxCell id="OvatHVZ9PwKXDZZDOVpk-105" value="&lt;b&gt;Machine Learning&lt;/b&gt;" style="outlineConnect=0;dashed=0;verticalLabelPosition=bottom;verticalAlign=top;align=center;html=1;shape=mxgraph.aws3.machine_learning;fillColor=#2E73B8;gradientColor=none;" parent="1" vertex="1">
          <mxGeometry x="-743" y="-2842" width="76.5" height="80" as="geometry" />
        </mxCell>
        <mxCell id="AwBLw1EEdppbr1t-jArM-1" value="&lt;div&gt;&lt;br&gt;&lt;/div&gt;&lt;div&gt;&lt;br&gt;&lt;/div&gt;" style="text;html=1;align=center;verticalAlign=middle;resizable=0;points=[];autosize=1;strokeColor=none;fillColor=none;" parent="1" vertex="1">
          <mxGeometry x="-604" y="-2917" width="18" height="41" as="geometry" />
        </mxCell>
      </root>
    </mxGraphModel>
  </diagram>
</mxfile>
